<svg xmlns="http://www.w3.org/2000/svg" xmlns:xlink="http://www.w3.org/1999/xlink" width="619" zoomAndPan="magnify" viewBox="0 0 464.25 440.25" height="587" preserveAspectRatio="xMidYMid meet" version="1.0"><defs><clipPath id="ec8c0c6df3"><path d="M 0.0195312 0 L 463.480469 0 L 463.480469 439.5 L 0.0195312 439.5 Z M 0.0195312 0 " clip-rule="nonzero"/></clipPath><clipPath id="17c345d05d"><path d="M 235 131.769531 L 303 131.769531 L 303 161 L 235 161 Z M 235 131.769531 " clip-rule="nonzero"/></clipPath><clipPath id="c58ddf99d0"><path d="M 168 131.769531 L 236 131.769531 L 236 161 L 168 161 Z M 168 131.769531 " clip-rule="nonzero"/></clipPath><clipPath id="2dbcefd45a"><path d="M 297 164 L 323.75 164 L 323.75 228 L 297 228 Z M 297 164 " clip-rule="nonzero"/></clipPath><clipPath id="5bc4edeb5e"><path d="M 297 227 L 323.75 227 L 323.75 290 L 297 290 Z M 297 227 " clip-rule="nonzero"/></clipPath><clipPath id="652500d751"><path d="M 235 277 L 236 277 L 236 329.269531 L 235 329.269531 Z M 235 277 " clip-rule="nonzero"/></clipPath><clipPath id="489de46f50"><path d="M 133.117188 226 L 175 226 L 175 228 L 133.117188 228 Z M 133.117188 226 " clip-rule="nonzero"/></clipPath><clipPath id="84c3934f75"><rect x="0" width="464" y="0" height="440"/></clipPath></defs><g clip-path="url(#ec8c0c6df3)"><g transform="matrix(1, 0, 0, 1, 0, 0.000000000000001899)"><g clip-path="url(#84c3934f75)"><path fill="#25995c" d="M 360.171875 78.367188 C 141.554688 77.382812 24.191406 179.523438 14.148438 390.960938 C 14.023438 393.617188 10.136719 393.765625 9.765625 391.132812 C 0.0117188 322.050781 1.902344 259.09375 19.421875 204.363281 C 77.253906 23.730469 297.84375 0.0351562 454.359375 57.199219 C 462.160156 60.050781 463.738281 70.121094 457.253906 75.3125 C 335.167969 173 351.785156 439.625 54.625 324.074219 C 101.039062 179.738281 196.1875 90.300781 360.171875 78.367188 " fill-opacity="1" fill-rule="evenodd"/><path fill="#00fffc" d="M 301.800781 293.792969 C 283.992188 311.640625 260.378906 321.441406 235.222656 321.441406 L 235.222656 322.382812 C 260.632812 322.382812 284.503906 312.496094 302.441406 294.476562 Z M 301.800781 293.792969 " fill-opacity="1" fill-rule="nonzero"/><path fill="#00fffc" d="M 168.691406 293.792969 L 168.007812 294.476562 C 185.941406 312.453125 209.855469 322.382812 235.222656 322.382812 L 235.222656 321.441406 C 210.113281 321.441406 186.496094 311.640625 168.691406 293.792969 Z M 168.691406 293.792969 " fill-opacity="1" fill-rule="nonzero"/><path fill="#00fffc" d="M 141.144531 227.074219 L 140.207031 227.074219 C 140.207031 252.539062 150.070312 276.460938 168.050781 294.433594 L 168.734375 293.75 C 150.925781 275.992188 141.144531 252.28125 141.144531 227.074219 Z M 141.144531 227.074219 " fill-opacity="1" fill-rule="nonzero"/><g clip-path="url(#17c345d05d)"><path fill="#00fffc" d="M 301.800781 160.398438 L 302.484375 159.714844 C 284.546875 141.695312 260.632812 131.769531 235.265625 131.769531 L 235.265625 132.710938 C 260.378906 132.753906 284.035156 142.59375 301.800781 160.398438 Z M 301.800781 160.398438 " fill-opacity="1" fill-rule="nonzero"/></g><g clip-path="url(#c58ddf99d0)"><path fill="#00fffc" d="M 168.691406 160.398438 C 186.496094 142.550781 210.113281 132.753906 235.265625 132.753906 L 235.265625 131.8125 C 209.855469 131.8125 185.984375 141.695312 168.050781 159.714844 Z M 168.691406 160.398438 " fill-opacity="1" fill-rule="nonzero"/></g><path fill="#00fffc" d="M 168.691406 160.398438 L 168.007812 159.714844 C 150.070312 177.6875 140.164062 201.609375 140.164062 227.03125 L 141.101562 227.03125 C 141.144531 201.867188 150.925781 178.203125 168.691406 160.398438 Z M 168.691406 160.398438 " fill-opacity="1" fill-rule="nonzero"/><path fill="#00fffc" d="M 235.265625 314.636719 L 235.265625 315.578125 C 258.839844 315.578125 281.003906 306.375 297.699219 289.640625 L 297.019531 288.957031 C 280.535156 305.519531 258.582031 314.636719 235.265625 314.636719 Z M 235.265625 314.636719 " fill-opacity="1" fill-rule="nonzero"/><g clip-path="url(#2dbcefd45a)"><path fill="#00fffc" d="M 297.019531 165.191406 C 313.5 181.710938 322.597656 203.707031 322.597656 227.117188 L 323.539062 227.117188 C 323.539062 203.492188 314.355469 181.28125 297.660156 164.550781 Z M 297.019531 165.191406 " fill-opacity="1" fill-rule="nonzero"/></g><path fill="#00fffc" d="M 235.265625 138.617188 L 235.265625 139.558594 C 258.582031 139.558594 280.535156 148.671875 297.058594 165.191406 L 297.742188 164.507812 C 281.003906 147.816406 258.839844 138.617188 235.265625 138.617188 Z M 235.265625 138.617188 " fill-opacity="1" fill-rule="nonzero"/><g clip-path="url(#5bc4edeb5e)"><path fill="#00fffc" d="M 297.019531 289 L 297.699219 289.683594 C 314.398438 272.953125 323.582031 250.742188 323.582031 227.117188 L 322.640625 227.117188 C 322.597656 250.484375 313.542969 272.480469 297.019531 289 Z M 297.019531 289 " fill-opacity="1" fill-rule="nonzero"/></g><path fill="#00fffc" d="M 156.605469 243.464844 C 156.5625 243.207031 156.304688 243.039062 156.050781 243.082031 C 155.792969 243.125 155.621094 243.378906 155.664062 243.636719 C 155.75 244.105469 155.835938 244.578125 155.964844 245.050781 C 156.007812 245.261719 156.21875 245.433594 156.433594 245.433594 C 156.476562 245.433594 156.476562 245.433594 156.519531 245.433594 C 156.773438 245.390625 156.945312 245.132812 156.859375 244.878906 C 156.816406 244.363281 156.734375 243.894531 156.605469 243.464844 Z M 156.605469 243.464844 " fill-opacity="1" fill-rule="nonzero"/><path fill="#00fffc" d="M 158.355469 250.355469 C 158.3125 250.097656 158.011719 249.96875 157.757812 250.054688 C 157.5 250.097656 157.375 250.398438 157.457031 250.65625 C 157.585938 251.125 157.757812 251.597656 157.886719 252.023438 C 157.929688 252.195312 158.140625 252.324219 158.3125 252.324219 C 158.355469 252.324219 158.398438 252.324219 158.484375 252.28125 C 158.738281 252.195312 158.867188 251.9375 158.78125 251.683594 C 158.652344 251.253906 158.527344 250.785156 158.355469 250.355469 Z M 158.355469 250.355469 " fill-opacity="1" fill-rule="nonzero"/><path fill="#00fffc" d="M 155.535156 236.402344 C 155.492188 236.148438 155.238281 235.976562 154.980469 235.976562 C 154.726562 236.019531 154.554688 236.234375 154.554688 236.53125 C 154.597656 237.003906 154.683594 237.472656 154.726562 237.945312 C 154.769531 238.203125 154.9375 238.371094 155.195312 238.371094 C 155.238281 238.371094 155.238281 238.371094 155.238281 238.371094 C 155.492188 238.328125 155.664062 238.074219 155.664062 237.816406 C 155.621094 237.34375 155.535156 236.875 155.535156 236.402344 Z M 155.535156 236.402344 " fill-opacity="1" fill-rule="nonzero"/><path fill="#00fffc" d="M 180.691406 286.089844 C 180.519531 285.917969 180.175781 285.917969 180.007812 286.132812 C 179.835938 286.347656 179.835938 286.644531 180.050781 286.816406 C 180.390625 287.117188 180.734375 287.460938 181.117188 287.800781 C 181.203125 287.886719 181.289062 287.929688 181.414062 287.929688 C 181.542969 287.929688 181.671875 287.886719 181.757812 287.757812 C 181.929688 287.589844 181.929688 287.246094 181.714844 287.074219 C 181.375 286.730469 181.03125 286.433594 180.691406 286.089844 Z M 180.691406 286.089844 " fill-opacity="1" fill-rule="nonzero"/><path fill="#00fffc" d="M 160.703125 257.074219 C 160.617188 256.816406 160.320312 256.730469 160.0625 256.816406 C 159.808594 256.902344 159.722656 257.203125 159.808594 257.460938 C 159.976562 257.886719 160.148438 258.359375 160.363281 258.785156 C 160.40625 258.957031 160.617188 259.085938 160.789062 259.085938 C 160.832031 259.085938 160.917969 259.085938 160.960938 259.042969 C 161.214844 258.957031 161.300781 258.65625 161.214844 258.402344 C 161.089844 257.929688 160.917969 257.503906 160.703125 257.074219 Z M 160.703125 257.074219 " fill-opacity="1" fill-rule="nonzero"/><path fill="#00fffc" d="M 187.265625 291.566406 C 186.882812 291.269531 186.496094 291.011719 186.113281 290.710938 C 185.898438 290.539062 185.601562 290.582031 185.429688 290.796875 C 185.257812 291.011719 185.300781 291.3125 185.515625 291.484375 C 185.898438 291.78125 186.285156 292.039062 186.667969 292.382812 C 186.753906 292.425781 186.839844 292.464844 186.96875 292.464844 C 187.136719 292.464844 187.265625 292.425781 187.351562 292.296875 C 187.480469 292.039062 187.4375 291.738281 187.265625 291.566406 Z M 187.265625 291.566406 " fill-opacity="1" fill-rule="nonzero"/><path fill="#00fffc" d="M 154.597656 231.226562 C 154.851562 231.226562 155.066406 231.011719 155.023438 230.710938 C 154.980469 230.242188 154.980469 229.769531 154.980469 229.300781 C 154.980469 229.042969 154.769531 228.828125 154.511719 228.828125 C 154.253906 228.828125 154.042969 229.042969 154.042969 229.300781 C 154.042969 229.769531 154.085938 230.242188 154.085938 230.710938 C 154.128906 231.054688 154.296875 231.226562 154.597656 231.226562 Z M 154.597656 231.226562 " fill-opacity="1" fill-rule="nonzero"/><path fill="#00fffc" d="M 175.695312 281.039062 C 175.523438 280.867188 175.222656 280.828125 175.011719 280.996094 C 174.839844 281.167969 174.796875 281.46875 174.96875 281.683594 C 175.265625 282.023438 175.609375 282.367188 175.949219 282.710938 C 176.035156 282.792969 176.164062 282.878906 176.292969 282.878906 C 176.417969 282.878906 176.503906 282.835938 176.589844 282.753906 C 176.761719 282.582031 176.761719 282.28125 176.632812 282.066406 C 176.335938 281.769531 175.992188 281.425781 175.695312 281.039062 Z M 175.695312 281.039062 " fill-opacity="1" fill-rule="nonzero"/><path fill="#00fffc" d="M 193.117188 295.546875 C 192.691406 295.292969 192.304688 295.035156 191.921875 294.777344 C 191.707031 294.648438 191.410156 294.734375 191.238281 294.949219 C 191.109375 295.164062 191.195312 295.460938 191.410156 295.632812 C 191.835938 295.890625 192.21875 296.148438 192.605469 296.402344 C 192.648438 296.445312 192.773438 296.445312 192.859375 296.445312 C 193.03125 296.445312 193.160156 296.359375 193.289062 296.234375 C 193.375 296.019531 193.332031 295.71875 193.117188 295.546875 Z M 193.117188 295.546875 " fill-opacity="1" fill-rule="nonzero"/><path fill="#00fffc" d="M 167.152344 269.699219 C 167.023438 269.484375 166.726562 269.398438 166.46875 269.527344 C 166.253906 269.65625 166.171875 269.957031 166.296875 270.210938 C 166.554688 270.640625 166.8125 271.027344 167.066406 271.410156 C 167.152344 271.539062 167.324219 271.625 167.492188 271.625 C 167.578125 271.625 167.664062 271.582031 167.75 271.582031 C 167.964844 271.410156 168.050781 271.15625 167.878906 270.898438 C 167.664062 270.511719 167.410156 270.128906 167.152344 269.699219 Z M 167.152344 269.699219 " fill-opacity="1" fill-rule="nonzero"/><path fill="#00fffc" d="M 163.652344 263.492188 C 163.523438 263.28125 163.222656 263.195312 163.011719 263.28125 C 162.796875 263.410156 162.710938 263.707031 162.796875 263.921875 C 163.011719 264.351562 163.222656 264.777344 163.480469 265.207031 C 163.566406 265.375 163.734375 265.460938 163.90625 265.460938 C 163.949219 265.460938 164.078125 265.417969 164.121094 265.417969 C 164.332031 265.292969 164.417969 264.992188 164.292969 264.777344 C 164.078125 264.351562 163.863281 263.964844 163.652344 263.492188 Z M 163.652344 263.492188 " fill-opacity="1" fill-rule="nonzero"/><path fill="#00fffc" d="M 171.167969 275.5625 C 170.996094 275.347656 170.738281 275.304688 170.484375 275.476562 C 170.269531 275.648438 170.226562 275.90625 170.398438 276.160156 C 170.695312 276.546875 170.953125 276.933594 171.292969 277.316406 C 171.378906 277.445312 171.507812 277.488281 171.679688 277.488281 C 171.765625 277.488281 171.894531 277.445312 171.976562 277.402344 C 172.191406 277.230469 172.234375 276.933594 172.0625 276.71875 C 171.722656 276.332031 171.464844 275.949219 171.167969 275.5625 Z M 171.167969 275.5625 " fill-opacity="1" fill-rule="nonzero"/><path fill="#00fffc" d="M 154.683594 221.726562 C 154.425781 221.683594 154.214844 221.894531 154.171875 222.152344 C 154.128906 222.625 154.128906 223.09375 154.128906 223.566406 C 154.128906 223.820312 154.296875 224.035156 154.554688 224.078125 C 154.554688 224.078125 154.554688 224.078125 154.597656 224.078125 C 154.851562 224.078125 155.066406 223.90625 155.066406 223.652344 C 155.109375 223.179688 155.109375 222.710938 155.109375 222.238281 C 155.152344 221.9375 154.9375 221.726562 154.683594 221.726562 Z M 154.683594 221.726562 " fill-opacity="1" fill-rule="nonzero"/><path fill="#00fffc" d="M 171.292969 177.6875 C 171.378906 177.730469 171.464844 177.773438 171.59375 177.773438 C 171.722656 177.773438 171.894531 177.730469 171.976562 177.601562 C 172.277344 177.21875 172.574219 176.832031 172.875 176.488281 C 173.046875 176.320312 173.003906 175.976562 172.832031 175.804688 C 172.660156 175.632812 172.320312 175.675781 172.148438 175.847656 C 171.851562 176.234375 171.550781 176.617188 171.253906 177.003906 C 171.039062 177.21875 171.082031 177.558594 171.292969 177.6875 Z M 171.292969 177.6875 " fill-opacity="1" fill-rule="nonzero"/><path fill="#00fffc" d="M 315.507812 228.53125 C 315.507812 228.785156 315.679688 229 315.980469 229 C 316.234375 229 316.449219 228.785156 316.449219 228.53125 C 316.449219 228.058594 316.449219 227.589844 316.449219 227.117188 L 315.507812 227.117188 C 315.507812 227.589844 315.507812 228.058594 315.507812 228.53125 Z M 315.507812 228.53125 " fill-opacity="1" fill-rule="nonzero"/><path fill="#00fffc" d="M 176.207031 172.339844 C 176.335938 172.339844 176.460938 172.296875 176.546875 172.167969 C 176.847656 171.824219 177.230469 171.484375 177.53125 171.140625 C 177.699219 170.96875 177.699219 170.667969 177.53125 170.457031 C 177.359375 170.285156 177.058594 170.285156 176.847656 170.457031 C 176.503906 170.796875 176.164062 171.140625 175.863281 171.484375 C 175.695312 171.652344 175.695312 171.996094 175.90625 172.167969 C 175.992188 172.296875 176.121094 172.339844 176.207031 172.339844 Z M 176.207031 172.339844 " fill-opacity="1" fill-rule="nonzero"/><path fill="#00fffc" d="M 316.449219 226.902344 C 316.449219 226.648438 316.234375 226.433594 315.980469 226.433594 C 315.722656 226.433594 315.507812 226.648438 315.507812 226.902344 L 315.507812 227.074219 L 316.449219 227.074219 Z M 316.449219 226.902344 " fill-opacity="1" fill-rule="nonzero"/><path fill="#00fffc" d="M 158.867188 200.710938 C 158.613281 200.625 158.355469 200.753906 158.269531 201.011719 C 158.097656 201.441406 157.972656 201.953125 157.84375 202.382812 C 157.757812 202.636719 157.886719 202.894531 158.140625 202.980469 C 158.183594 202.980469 158.226562 203.023438 158.3125 203.023438 C 158.484375 203.023438 158.695312 202.894531 158.738281 202.722656 C 158.910156 202.296875 159.039062 201.78125 159.167969 201.355469 C 159.253906 201.054688 159.125 200.796875 158.867188 200.710938 Z M 158.867188 200.710938 " fill-opacity="1" fill-rule="nonzero"/><path fill="#00fffc" d="M 155.453125 214.621094 C 155.195312 214.578125 154.9375 214.75 154.894531 215.050781 C 154.851562 215.519531 154.769531 215.992188 154.726562 216.460938 C 154.683594 216.71875 154.894531 216.976562 155.152344 217.019531 C 155.195312 217.019531 155.195312 217.019531 155.195312 217.019531 C 155.410156 217.019531 155.621094 216.847656 155.664062 216.589844 C 155.707031 216.117188 155.792969 215.648438 155.835938 215.175781 C 155.878906 214.878906 155.707031 214.664062 155.453125 214.621094 Z M 155.453125 214.621094 " fill-opacity="1" fill-rule="nonzero"/><path fill="#00fffc" d="M 156.859375 207.601562 C 156.605469 207.558594 156.347656 207.6875 156.304688 207.945312 C 156.175781 208.414062 156.09375 208.886719 156.007812 209.355469 C 155.964844 209.613281 156.09375 209.871094 156.347656 209.914062 C 156.390625 209.914062 156.390625 209.914062 156.433594 209.914062 C 156.648438 209.914062 156.859375 209.742188 156.902344 209.527344 C 156.988281 209.058594 157.117188 208.585938 157.203125 208.117188 C 157.246094 207.902344 157.117188 207.644531 156.859375 207.601562 Z M 156.859375 207.601562 " fill-opacity="1" fill-rule="nonzero"/><path fill="#00fffc" d="M 167.152344 183.550781 C 167.238281 183.59375 167.324219 183.59375 167.410156 183.59375 C 167.578125 183.59375 167.707031 183.550781 167.835938 183.378906 C 168.09375 182.953125 168.347656 182.566406 168.648438 182.222656 C 168.816406 182.011719 168.734375 181.710938 168.519531 181.539062 C 168.304688 181.367188 168.007812 181.453125 167.835938 181.667969 C 167.578125 182.097656 167.28125 182.480469 167.023438 182.867188 C 166.894531 183.082031 166.9375 183.421875 167.152344 183.550781 Z M 167.152344 183.550781 " fill-opacity="1" fill-rule="nonzero"/><path fill="#00fffc" d="M 199.308594 299.058594 C 198.882812 298.84375 198.457031 298.628906 198.027344 298.371094 C 197.816406 298.246094 197.515625 298.328125 197.386719 298.542969 C 197.257812 298.757812 197.34375 299.058594 197.558594 299.1875 C 197.984375 299.398438 198.414062 299.613281 198.839844 299.871094 C 198.882812 299.914062 198.96875 299.914062 199.054688 299.914062 C 199.222656 299.914062 199.394531 299.828125 199.480469 299.65625 C 199.609375 299.484375 199.523438 299.1875 199.308594 299.058594 Z M 199.308594 299.058594 " fill-opacity="1" fill-rule="nonzero"/><path fill="#00fffc" d="M 163.609375 189.757812 C 163.652344 189.800781 163.777344 189.800781 163.820312 189.800781 C 163.992188 189.800781 164.164062 189.714844 164.25 189.542969 C 164.460938 189.113281 164.675781 188.730469 164.933594 188.257812 C 165.058594 188.042969 164.972656 187.746094 164.761719 187.617188 C 164.546875 187.488281 164.25 187.574219 164.121094 187.789062 C 163.90625 188.214844 163.652344 188.644531 163.4375 189.070312 C 163.265625 189.371094 163.351562 189.628906 163.609375 189.757812 Z M 163.609375 189.757812 " fill-opacity="1" fill-rule="nonzero"/><path fill="#00fffc" d="M 160.574219 196.21875 C 160.617188 196.261719 160.703125 196.261719 160.746094 196.261719 C 160.917969 196.261719 161.089844 196.175781 161.171875 195.960938 C 161.34375 195.535156 161.558594 195.0625 161.730469 194.679688 C 161.8125 194.421875 161.730469 194.164062 161.472656 194.035156 C 161.214844 193.949219 160.960938 194.035156 160.832031 194.292969 C 160.660156 194.722656 160.449219 195.191406 160.277344 195.621094 C 160.191406 195.875 160.320312 196.132812 160.574219 196.21875 Z M 160.574219 196.21875 " fill-opacity="1" fill-rule="nonzero"/><path fill="#00fffc" d="M 233.300781 146.703125 C 233.773438 146.703125 234.242188 146.660156 234.710938 146.660156 C 234.96875 146.660156 235.179688 146.445312 235.179688 146.191406 C 235.179688 145.933594 234.96875 145.71875 234.710938 145.71875 C 234.242188 145.71875 233.773438 145.71875 233.300781 145.761719 C 233.046875 145.761719 232.832031 145.976562 232.832031 146.234375 C 232.832031 146.488281 233.046875 146.703125 233.300781 146.703125 Z M 233.300781 146.703125 " fill-opacity="1" fill-rule="nonzero"/><path fill="#00fffc" d="M 280.277344 160.484375 C 280.660156 160.742188 281.089844 161.039062 281.429688 161.296875 C 281.515625 161.339844 281.601562 161.382812 281.730469 161.382812 C 281.898438 161.382812 282.027344 161.339844 282.113281 161.210938 C 282.285156 160.996094 282.199219 160.699219 281.984375 160.527344 C 281.601562 160.226562 281.175781 159.96875 280.832031 159.714844 C 280.621094 159.542969 280.320312 159.628906 280.148438 159.84375 C 279.980469 160.054688 280.0625 160.398438 280.277344 160.484375 Z M 280.277344 160.484375 " fill-opacity="1" fill-rule="nonzero"/><path fill="#00fffc" d="M 287.066406 165.664062 C 287.152344 165.707031 287.238281 165.789062 287.367188 165.789062 C 287.496094 165.789062 287.621094 165.75 287.707031 165.621094 C 287.878906 165.449219 287.878906 165.105469 287.664062 164.933594 C 287.28125 164.636719 286.941406 164.335938 286.554688 163.992188 C 286.382812 163.824219 286.042969 163.863281 285.871094 164.035156 C 285.699219 164.207031 285.742188 164.550781 285.914062 164.722656 C 286.339844 165.0625 286.726562 165.363281 287.066406 165.664062 Z M 287.066406 165.664062 " fill-opacity="1" fill-rule="nonzero"/><path fill="#00fffc" d="M 297.058594 175.761719 C 297.144531 175.890625 297.273438 175.933594 297.445312 175.933594 C 297.53125 175.933594 297.660156 175.890625 297.742188 175.847656 C 297.914062 175.675781 297.957031 175.378906 297.785156 175.164062 C 297.488281 174.777344 297.1875 174.4375 296.847656 174.050781 C 296.675781 173.878906 296.378906 173.835938 296.164062 174.007812 C 295.992188 174.179688 295.949219 174.476562 296.121094 174.691406 C 296.421875 175.078125 296.761719 175.421875 297.058594 175.761719 Z M 297.058594 175.761719 " fill-opacity="1" fill-rule="nonzero"/><path fill="#00fffc" d="M 205.800781 301.925781 C 205.375 301.753906 204.902344 301.582031 204.476562 301.367188 C 204.21875 301.28125 203.964844 301.367188 203.835938 301.625 C 203.75 301.882812 203.835938 302.136719 204.09375 302.265625 C 204.519531 302.4375 204.988281 302.652344 205.414062 302.824219 C 205.457031 302.867188 205.542969 302.867188 205.585938 302.867188 C 205.757812 302.867188 205.972656 302.738281 206.015625 302.566406 C 206.140625 302.308594 206.054688 302.054688 205.800781 301.925781 Z M 205.800781 301.925781 " fill-opacity="1" fill-rule="nonzero"/><path fill="#00fffc" d="M 274.214844 156.804688 C 274.640625 157.019531 275.023438 157.273438 275.453125 157.488281 C 275.496094 157.53125 275.621094 157.53125 275.707031 157.53125 C 275.878906 157.53125 276.007812 157.445312 276.136719 157.316406 C 276.261719 157.101562 276.179688 156.804688 275.964844 156.632812 C 275.539062 156.375 275.152344 156.160156 274.683594 155.949219 C 274.46875 155.820312 274.171875 155.90625 274.042969 156.117188 C 273.914062 156.332031 274 156.675781 274.214844 156.804688 Z M 274.214844 156.804688 " fill-opacity="1" fill-rule="nonzero"/><path fill="#00fffc" d="M 313.03125 207.21875 C 313.074219 207.429688 313.289062 207.558594 313.5 207.558594 C 313.542969 207.558594 313.542969 207.558594 313.628906 207.558594 C 313.886719 207.515625 314.058594 207.261719 313.972656 207.003906 C 313.84375 206.53125 313.714844 206.0625 313.585938 205.589844 C 313.542969 205.335938 313.289062 205.164062 313.03125 205.25 C 312.777344 205.335938 312.605469 205.546875 312.691406 205.804688 C 312.820312 206.277344 312.902344 206.746094 313.03125 207.21875 Z M 313.03125 207.21875 " fill-opacity="1" fill-rule="nonzero"/><path fill="#00fffc" d="M 301.332031 181.453125 C 301.417969 181.582031 301.585938 181.625 301.714844 181.625 C 301.800781 181.625 301.886719 181.582031 302.015625 181.539062 C 302.226562 181.367188 302.3125 181.113281 302.140625 180.855469 C 301.84375 180.46875 301.585938 180.042969 301.332031 179.699219 C 301.160156 179.484375 300.902344 179.441406 300.648438 179.613281 C 300.433594 179.785156 300.390625 180.042969 300.5625 180.296875 C 300.820312 180.683594 301.074219 181.070312 301.332031 181.453125 Z M 301.332031 181.453125 " fill-opacity="1" fill-rule="nonzero"/><path fill="#00fffc" d="M 314.484375 214.148438 C 314.527344 214.363281 314.742188 214.578125 314.953125 214.578125 C 314.996094 214.578125 314.996094 214.578125 314.996094 214.578125 C 315.253906 214.535156 315.421875 214.277344 315.382812 214.023438 C 315.339844 213.550781 315.210938 213.082031 315.125 212.609375 C 315.082031 212.351562 314.824219 212.179688 314.570312 212.222656 C 314.3125 212.265625 314.140625 212.523438 314.183594 212.78125 C 314.3125 213.25 314.398438 213.679688 314.484375 214.148438 Z M 314.484375 214.148438 " fill-opacity="1" fill-rule="nonzero"/><path fill="#00fffc" d="M 261.230469 150.984375 C 261.660156 151.15625 262.128906 151.28125 262.554688 151.453125 C 262.597656 151.496094 262.640625 151.496094 262.726562 151.496094 C 262.898438 151.496094 263.109375 151.367188 263.152344 151.199219 C 263.238281 150.941406 263.109375 150.683594 262.855469 150.597656 C 262.425781 150.425781 261.914062 150.296875 261.488281 150.128906 C 261.230469 150.042969 260.976562 150.171875 260.890625 150.425781 C 260.890625 150.640625 261.019531 150.898438 261.230469 150.984375 Z M 261.230469 150.984375 " fill-opacity="1" fill-rule="nonzero"/><path fill="#00fffc" d="M 308.335938 193.78125 C 308.421875 193.949219 308.589844 194.078125 308.761719 194.078125 C 308.804688 194.078125 308.890625 194.078125 308.933594 194.035156 C 309.1875 193.949219 309.273438 193.652344 309.144531 193.394531 C 308.976562 192.964844 308.71875 192.539062 308.546875 192.109375 C 308.421875 191.894531 308.121094 191.769531 307.90625 191.894531 C 307.695312 192.023438 307.566406 192.324219 307.695312 192.539062 C 307.90625 192.921875 308.121094 193.394531 308.335938 193.78125 Z M 308.335938 193.78125 " fill-opacity="1" fill-rule="nonzero"/><path fill="#00fffc" d="M 305.089844 187.488281 C 305.175781 187.660156 305.34375 187.746094 305.515625 187.746094 C 305.601562 187.746094 305.6875 187.703125 305.730469 187.703125 C 305.941406 187.574219 306.027344 187.273438 305.902344 187.058594 C 305.6875 186.632812 305.429688 186.246094 305.175781 185.820312 C 305.046875 185.605469 304.746094 185.519531 304.492188 185.648438 C 304.277344 185.777344 304.191406 186.074219 304.320312 186.332031 C 304.621094 186.632812 304.832031 187.058594 305.089844 187.488281 Z M 305.089844 187.488281 " fill-opacity="1" fill-rule="nonzero"/><path fill="#00fffc" d="M 310.980469 200.414062 C 311.023438 200.582031 311.238281 200.710938 311.410156 200.710938 C 311.453125 200.710938 311.496094 200.710938 311.582031 200.667969 C 311.835938 200.582031 311.964844 200.328125 311.878906 200.070312 C 311.707031 199.640625 311.582031 199.128906 311.410156 198.699219 C 311.324219 198.445312 311.023438 198.316406 310.8125 198.402344 C 310.554688 198.488281 310.425781 198.785156 310.511719 199 C 310.640625 199.515625 310.8125 199.941406 310.980469 200.414062 Z M 310.980469 200.414062 " fill-opacity="1" fill-rule="nonzero"/><path fill="#00fffc" d="M 192.734375 158.773438 C 192.816406 158.773438 192.902344 158.730469 192.988281 158.730469 C 193.414062 158.472656 193.800781 158.214844 194.183594 158.003906 C 194.398438 157.875 194.484375 157.574219 194.355469 157.316406 C 194.226562 157.101562 193.929688 157.019531 193.671875 157.144531 C 193.246094 157.402344 192.859375 157.660156 192.433594 157.917969 C 192.21875 158.042969 192.136719 158.34375 192.261719 158.601562 C 192.390625 158.6875 192.5625 158.773438 192.734375 158.773438 Z M 192.734375 158.773438 " fill-opacity="1" fill-rule="nonzero"/><path fill="#00fffc" d="M 205.457031 152.351562 C 205.5 152.351562 205.585938 152.351562 205.628906 152.308594 C 206.054688 152.140625 206.527344 151.96875 206.953125 151.796875 C 207.210938 151.710938 207.335938 151.410156 207.253906 151.199219 C 207.167969 150.941406 206.867188 150.8125 206.65625 150.898438 C 206.226562 151.070312 205.757812 151.242188 205.332031 151.410156 C 205.074219 151.496094 204.988281 151.796875 205.074219 152.011719 C 205.117188 152.222656 205.246094 152.351562 205.457031 152.351562 Z M 205.457031 152.351562 " fill-opacity="1" fill-rule="nonzero"/><path fill="#00fffc" d="M 198.96875 155.261719 C 199.011719 155.261719 199.136719 155.21875 199.179688 155.21875 C 199.609375 155.007812 200.035156 154.792969 200.460938 154.578125 C 200.675781 154.449219 200.804688 154.152344 200.675781 153.9375 C 200.546875 153.722656 200.25 153.59375 200.035156 153.722656 C 199.609375 153.9375 199.179688 154.152344 198.753906 154.363281 C 198.539062 154.492188 198.457031 154.792969 198.539062 155.007812 C 198.625 155.175781 198.753906 155.261719 198.96875 155.261719 Z M 198.96875 155.261719 " fill-opacity="1" fill-rule="nonzero"/><path fill="#00fffc" d="M 180.988281 167.203125 C 181.074219 167.289062 181.203125 167.375 181.332031 167.375 C 181.457031 167.375 181.542969 167.332031 181.628906 167.246094 C 181.972656 166.945312 182.3125 166.605469 182.695312 166.304688 C 182.867188 166.132812 182.910156 165.832031 182.738281 165.621094 C 182.570312 165.449219 182.269531 165.40625 182.054688 165.578125 C 181.714844 165.875 181.332031 166.21875 180.988281 166.519531 C 180.816406 166.691406 180.773438 166.988281 180.988281 167.203125 Z M 180.988281 167.203125 " fill-opacity="1" fill-rule="nonzero"/><path fill="#00fffc" d="M 186.839844 162.796875 C 186.925781 162.796875 187.011719 162.753906 187.136719 162.710938 C 187.523438 162.410156 187.90625 162.152344 188.292969 161.855469 C 188.503906 161.683594 188.546875 161.425781 188.375 161.167969 C 188.207031 160.953125 187.949219 160.914062 187.695312 161.082031 C 187.308594 161.382812 186.925781 161.640625 186.539062 161.9375 C 186.328125 162.109375 186.285156 162.367188 186.453125 162.625 C 186.539062 162.710938 186.710938 162.796875 186.839844 162.796875 Z M 186.839844 162.796875 " fill-opacity="1" fill-rule="nonzero"/><path fill="#00fffc" d="M 247.480469 147.601562 C 247.949219 147.644531 248.417969 147.773438 248.890625 147.816406 C 248.933594 147.816406 248.933594 147.816406 248.976562 147.816406 C 249.1875 147.816406 249.402344 147.644531 249.445312 147.429688 C 249.488281 147.175781 249.316406 146.917969 249.058594 146.875 C 248.589844 146.789062 248.121094 146.703125 247.652344 146.660156 C 247.394531 146.617188 247.136719 146.789062 247.097656 147.089844 C 247.054688 147.304688 247.222656 147.558594 247.480469 147.601562 Z M 247.480469 147.601562 " fill-opacity="1" fill-rule="nonzero"/><path fill="#00fffc" d="M 254.441406 148.972656 C 254.910156 149.101562 255.378906 149.1875 255.808594 149.316406 C 255.851562 149.316406 255.894531 149.316406 255.9375 149.316406 C 256.148438 149.316406 256.363281 149.1875 256.363281 148.972656 C 256.40625 148.714844 256.277344 148.457031 256.019531 148.414062 C 255.550781 148.289062 255.082031 148.160156 254.613281 148.074219 C 254.355469 148.03125 254.097656 148.160156 254.058594 148.414062 C 254.015625 148.671875 254.183594 148.929688 254.441406 148.972656 Z M 254.441406 148.972656 " fill-opacity="1" fill-rule="nonzero"/><path fill="#00fffc" d="M 240.433594 146.832031 C 240.902344 146.875 241.375 146.875 241.84375 146.917969 L 241.886719 146.917969 C 242.140625 146.917969 242.3125 146.746094 242.355469 146.488281 C 242.398438 146.234375 242.183594 146.019531 241.929688 145.976562 C 241.457031 145.933594 240.988281 145.933594 240.519531 145.890625 C 240.261719 145.890625 240.050781 146.0625 240.007812 146.320312 C 239.964844 146.574219 240.175781 146.832031 240.433594 146.832031 Z M 240.433594 146.832031 " fill-opacity="1" fill-rule="nonzero"/><path fill="#00fffc" d="M 219.125 148.289062 C 219.167969 148.289062 219.167969 148.289062 219.210938 148.289062 C 219.679688 148.203125 220.148438 148.117188 220.617188 147.988281 C 220.875 147.945312 221.046875 147.6875 221.003906 147.429688 C 220.960938 147.175781 220.703125 147.003906 220.449219 147.046875 C 219.976562 147.132812 219.507812 147.21875 219.039062 147.347656 C 218.78125 147.386719 218.613281 147.644531 218.65625 147.902344 C 218.738281 148.117188 218.910156 148.289062 219.125 148.289062 Z M 219.125 148.289062 " fill-opacity="1" fill-rule="nonzero"/><path fill="#00fffc" d="M 226.214844 147.175781 C 226.257812 147.175781 226.257812 147.175781 226.257812 147.175781 C 226.726562 147.132812 227.195312 147.089844 227.664062 147.003906 C 227.921875 146.960938 228.09375 146.746094 228.09375 146.488281 C 228.050781 146.234375 227.835938 146.0625 227.578125 146.0625 C 227.109375 146.105469 226.640625 146.148438 226.171875 146.234375 C 225.914062 146.277344 225.742188 146.488281 225.742188 146.789062 C 225.742188 147.003906 225.957031 147.175781 226.214844 147.175781 Z M 226.214844 147.175781 " fill-opacity="1" fill-rule="nonzero"/><path fill="#00fffc" d="M 212.207031 150 C 212.25 150 212.292969 150 212.335938 149.957031 C 212.761719 149.828125 213.273438 149.699219 213.699219 149.570312 C 213.957031 149.527344 214.128906 149.273438 214 149.015625 C 213.957031 148.757812 213.65625 148.585938 213.445312 148.714844 C 212.976562 148.84375 212.503906 148.972656 212.035156 149.144531 C 211.777344 149.1875 211.652344 149.484375 211.734375 149.742188 C 211.820312 149.871094 211.992188 150 212.207031 150 Z M 212.207031 150 " fill-opacity="1" fill-rule="nonzero"/><path fill="#00fffc" d="M 267.851562 153.59375 C 268.277344 153.765625 268.703125 153.980469 269.132812 154.191406 C 269.175781 154.234375 269.257812 154.234375 269.300781 154.234375 C 269.472656 154.234375 269.644531 154.152344 269.730469 153.9375 C 269.859375 153.679688 269.730469 153.421875 269.515625 153.292969 C 269.089844 153.125 268.617188 152.867188 268.234375 152.695312 C 267.980469 152.609375 267.722656 152.695312 267.59375 152.953125 C 267.507812 153.207031 267.636719 153.507812 267.851562 153.59375 Z M 267.851562 153.59375 " fill-opacity="1" fill-rule="nonzero"/><path fill="#00fffc" d="M 280.363281 293.621094 C 279.980469 293.878906 279.550781 294.179688 279.210938 294.433594 C 278.996094 294.605469 278.910156 294.863281 279.082031 295.121094 C 279.167969 295.25 279.339844 295.335938 279.507812 295.335938 C 279.59375 295.335938 279.679688 295.292969 279.765625 295.292969 C 280.191406 295.035156 280.578125 294.734375 280.960938 294.476562 C 281.175781 294.308594 281.257812 294.050781 281.089844 293.792969 C 280.917969 293.535156 280.621094 293.449219 280.363281 293.621094 Z M 280.363281 293.621094 " fill-opacity="1" fill-rule="nonzero"/><path fill="#00fffc" d="M 268.019531 300.554688 C 267.59375 300.726562 267.167969 300.941406 266.738281 301.113281 C 266.484375 301.195312 266.398438 301.496094 266.484375 301.753906 C 266.527344 301.925781 266.738281 302.054688 266.910156 302.054688 C 266.953125 302.054688 267.039062 302.054688 267.082031 302.011719 C 267.507812 301.839844 267.980469 301.625 268.363281 301.453125 C 268.617188 301.367188 268.703125 301.070312 268.617188 300.8125 C 268.535156 300.554688 268.234375 300.46875 268.019531 300.554688 Z M 268.019531 300.554688 " fill-opacity="1" fill-rule="nonzero"/><path fill="#00fffc" d="M 286.085938 289.34375 C 285.699219 289.640625 285.359375 289.941406 284.976562 290.242188 C 284.761719 290.414062 284.71875 290.710938 284.933594 290.925781 C 285.019531 291.054688 285.144531 291.097656 285.316406 291.097656 C 285.402344 291.097656 285.53125 291.054688 285.617188 291.011719 C 286 290.710938 286.382812 290.414062 286.726562 290.113281 C 286.898438 289.941406 286.941406 289.640625 286.769531 289.429688 C 286.597656 289.214844 286.257812 289.171875 286.085938 289.34375 Z M 286.085938 289.34375 " fill-opacity="1" fill-rule="nonzero"/><path fill="#00fffc" d="M 274.339844 297.34375 C 273.914062 297.558594 273.53125 297.773438 273.101562 298.03125 C 272.890625 298.160156 272.804688 298.457031 272.933594 298.671875 C 273.019531 298.84375 273.1875 298.929688 273.359375 298.929688 C 273.402344 298.929688 273.53125 298.886719 273.574219 298.886719 C 274 298.671875 274.425781 298.457031 274.855469 298.203125 C 275.066406 298.074219 275.152344 297.773438 275.023438 297.558594 C 274.855469 297.300781 274.597656 297.21875 274.339844 297.34375 Z M 274.339844 297.34375 " fill-opacity="1" fill-rule="nonzero"/><path fill="#00fffc" d="M 290.3125 286.261719 C 290.398438 286.347656 290.527344 286.433594 290.65625 286.433594 C 290.78125 286.433594 290.867188 286.390625 290.953125 286.304688 C 291.296875 286.003906 291.636719 285.621094 291.980469 285.320312 C 292.148438 285.148438 292.148438 284.847656 291.980469 284.636719 C 291.808594 284.464844 291.507812 284.464844 291.296875 284.636719 C 290.953125 284.933594 290.613281 285.320312 290.269531 285.621094 C 290.140625 285.789062 290.140625 286.089844 290.3125 286.261719 Z M 290.3125 286.261719 " fill-opacity="1" fill-rule="nonzero"/><path fill="#00fffc" d="M 308.421875 261.3125 C 308.207031 261.183594 307.90625 261.3125 307.78125 261.523438 C 307.609375 261.953125 307.351562 262.382812 307.140625 262.808594 C 307.011719 263.023438 307.097656 263.324219 307.351562 263.449219 C 307.394531 263.492188 307.480469 263.492188 307.566406 263.492188 C 307.738281 263.492188 307.90625 263.410156 307.992188 263.238281 C 308.207031 262.808594 308.421875 262.382812 308.632812 261.953125 C 308.761719 261.695312 308.632812 261.398438 308.421875 261.3125 Z M 308.421875 261.3125 " fill-opacity="1" fill-rule="nonzero"/><path fill="#00fffc" d="M 296.207031 279.414062 C 295.90625 279.757812 295.566406 280.140625 295.265625 280.484375 C 295.097656 280.65625 295.097656 280.996094 295.308594 281.167969 C 295.394531 281.253906 295.480469 281.296875 295.609375 281.296875 C 295.738281 281.296875 295.863281 281.253906 295.949219 281.125 C 296.25 280.785156 296.589844 280.398438 296.890625 280.054688 C 297.058594 279.882812 297.058594 279.542969 296.847656 279.371094 C 296.675781 279.199219 296.378906 279.199219 296.207031 279.414062 Z M 296.207031 279.414062 " fill-opacity="1" fill-rule="nonzero"/><path fill="#00fffc" d="M 301.246094 273.679688 C 301.03125 273.507812 300.734375 273.59375 300.5625 273.765625 C 300.261719 274.148438 300.007812 274.535156 299.75 274.921875 C 299.582031 275.132812 299.621094 275.433594 299.835938 275.605469 C 299.921875 275.648438 300.007812 275.691406 300.136719 275.691406 C 300.304688 275.691406 300.433594 275.648438 300.519531 275.519531 C 300.820312 275.132812 301.074219 274.75 301.375 274.363281 C 301.542969 274.148438 301.460938 273.851562 301.246094 273.679688 Z M 301.246094 273.679688 " fill-opacity="1" fill-rule="nonzero"/><path fill="#00fffc" d="M 305.089844 267.6875 C 304.875 267.558594 304.578125 267.644531 304.40625 267.859375 C 304.148438 268.285156 303.9375 268.671875 303.679688 269.101562 C 303.550781 269.3125 303.636719 269.613281 303.851562 269.785156 C 303.894531 269.828125 304.019531 269.828125 304.105469 269.828125 C 304.277344 269.828125 304.40625 269.742188 304.535156 269.613281 C 304.789062 269.1875 305.046875 268.800781 305.261719 268.371094 C 305.429688 268.074219 305.34375 267.816406 305.089844 267.6875 Z M 305.089844 267.6875 " fill-opacity="1" fill-rule="nonzero"/><path fill="#00fffc" d="M 226.425781 307.058594 C 225.957031 307.015625 225.488281 306.972656 225.015625 306.890625 C 224.761719 306.847656 224.503906 307.058594 224.460938 307.316406 C 224.417969 307.574219 224.632812 307.832031 224.890625 307.875 C 225.359375 307.917969 225.828125 308 226.296875 308.042969 C 226.339844 308.042969 226.339844 308.042969 226.339844 308.042969 C 226.597656 308.042969 226.769531 307.875 226.8125 307.617188 C 226.898438 307.316406 226.683594 307.101562 226.425781 307.058594 Z M 226.425781 307.058594 " fill-opacity="1" fill-rule="nonzero"/><path fill="#00fffc" d="M 219.421875 305.988281 C 218.953125 305.90625 218.484375 305.820312 218.015625 305.691406 C 217.757812 305.648438 217.5 305.777344 217.457031 306.03125 C 217.417969 306.289062 217.542969 306.546875 217.800781 306.589844 C 218.269531 306.675781 218.738281 306.761719 219.210938 306.890625 C 219.253906 306.890625 219.253906 306.890625 219.296875 306.890625 C 219.507812 306.890625 219.722656 306.71875 219.765625 306.503906 C 219.851562 306.289062 219.679688 306.03125 219.421875 305.988281 Z M 219.421875 305.988281 " fill-opacity="1" fill-rule="nonzero"/><path fill="#00fffc" d="M 254.613281 305.175781 C 254.183594 305.304688 253.671875 305.390625 253.203125 305.476562 C 252.945312 305.519531 252.777344 305.777344 252.859375 306.03125 C 252.902344 306.246094 253.117188 306.417969 253.332031 306.417969 C 253.375 306.417969 253.375 306.417969 253.417969 306.417969 C 253.886719 306.332031 254.355469 306.203125 254.824219 306.074219 C 255.082031 306.03125 255.253906 305.777344 255.167969 305.519531 C 255.125 305.261719 254.867188 305.132812 254.613281 305.175781 Z M 254.613281 305.175781 " fill-opacity="1" fill-rule="nonzero"/><path fill="#00fffc" d="M 212.503906 304.277344 C 212.078125 304.148438 211.566406 303.980469 211.136719 303.851562 C 210.882812 303.765625 210.625 303.894531 210.539062 304.148438 C 210.496094 304.40625 210.582031 304.664062 210.839844 304.75 C 211.265625 304.921875 211.777344 305.046875 212.207031 305.175781 C 212.25 305.175781 212.292969 305.21875 212.335938 305.21875 C 212.503906 305.21875 212.71875 305.089844 212.761719 304.878906 C 212.933594 304.621094 212.761719 304.363281 212.503906 304.277344 Z M 212.503906 304.277344 " fill-opacity="1" fill-rule="nonzero"/><path fill="#00fffc" d="M 247.652344 306.589844 C 247.179688 306.632812 246.710938 306.71875 246.242188 306.804688 C 245.984375 306.847656 245.816406 307.101562 245.816406 307.359375 C 245.859375 307.617188 246.027344 307.789062 246.285156 307.789062 C 246.328125 307.789062 246.328125 307.789062 246.328125 307.789062 C 246.796875 307.746094 247.265625 307.660156 247.738281 307.574219 C 247.992188 307.53125 248.164062 307.273438 248.164062 307.015625 C 248.164062 306.71875 247.90625 306.546875 247.652344 306.589844 Z M 247.652344 306.589844 " fill-opacity="1" fill-rule="nonzero"/><path fill="#00fffc" d="M 233.515625 307.53125 C 233.046875 307.53125 232.578125 307.488281 232.105469 307.488281 C 231.851562 307.488281 231.636719 307.660156 231.59375 307.917969 C 231.59375 308.171875 231.765625 308.386719 232.019531 308.429688 C 232.492188 308.472656 232.960938 308.472656 233.429688 308.472656 C 233.6875 308.472656 233.898438 308.257812 233.898438 308 C 233.984375 307.746094 233.773438 307.53125 233.515625 307.53125 Z M 233.515625 307.53125 " fill-opacity="1" fill-rule="nonzero"/><path fill="#00fffc" d="M 240.605469 307.359375 C 240.136719 307.402344 239.664062 307.402344 239.195312 307.445312 C 238.9375 307.445312 238.726562 307.660156 238.769531 307.957031 C 238.769531 308.214844 238.980469 308.386719 239.238281 308.386719 C 239.238281 308.386719 239.238281 308.386719 239.28125 308.386719 C 239.75 308.34375 240.21875 308.34375 240.691406 308.300781 C 240.945312 308.257812 241.160156 308.042969 241.117188 307.789062 C 241.074219 307.53125 240.902344 307.316406 240.605469 307.359375 Z M 240.605469 307.359375 " fill-opacity="1" fill-rule="nonzero"/><path fill="#00fffc" d="M 261.445312 303.164062 C 261.019531 303.335938 260.546875 303.464844 260.078125 303.59375 C 259.820312 303.679688 259.695312 303.9375 259.777344 304.191406 C 259.820312 304.363281 260.035156 304.492188 260.207031 304.492188 C 260.25 304.492188 260.292969 304.492188 260.378906 304.449219 C 260.804688 304.277344 261.316406 304.148438 261.742188 304.023438 C 262 303.9375 262.128906 303.679688 262.042969 303.421875 C 261.957031 303.207031 261.699219 303.082031 261.445312 303.164062 Z M 261.445312 303.164062 " fill-opacity="1" fill-rule="nonzero"/><path fill="#00fffc" d="M 313.289062 247.875 C 313.03125 247.832031 312.777344 247.960938 312.734375 248.214844 C 312.605469 248.644531 312.476562 249.15625 312.347656 249.585938 C 312.304688 249.84375 312.390625 250.097656 312.648438 250.183594 C 312.691406 250.183594 312.734375 250.226562 312.777344 250.226562 C 312.945312 250.226562 313.160156 250.097656 313.203125 249.886719 C 313.332031 249.414062 313.460938 248.941406 313.585938 248.472656 C 313.671875 248.171875 313.542969 247.917969 313.289062 247.875 Z M 313.289062 247.875 " fill-opacity="1" fill-rule="nonzero"/><path fill="#00fffc" d="M 315.167969 219.800781 C 315.210938 220.269531 315.253906 220.742188 315.296875 221.210938 C 315.339844 221.46875 315.507812 221.640625 315.765625 221.640625 L 315.808594 221.640625 C 316.0625 221.597656 316.234375 221.382812 316.234375 221.125 C 316.191406 220.65625 316.191406 220.183594 316.105469 219.714844 C 316.0625 219.457031 315.851562 219.285156 315.59375 219.285156 C 315.339844 219.328125 315.125 219.542969 315.167969 219.800781 Z M 315.167969 219.800781 " fill-opacity="1" fill-rule="nonzero"/><path fill="#00fffc" d="M 315.722656 233.792969 C 315.464844 233.75 315.210938 233.964844 315.210938 234.222656 C 315.167969 234.691406 315.125 235.164062 315.082031 235.632812 C 315.039062 235.890625 315.253906 236.148438 315.507812 236.148438 C 315.550781 236.148438 315.550781 236.148438 315.550781 236.148438 C 315.808594 236.148438 315.980469 235.976562 316.019531 235.71875 C 316.0625 235.25 316.105469 234.777344 316.148438 234.308594 C 316.148438 234.050781 315.980469 233.792969 315.722656 233.792969 Z M 315.722656 233.792969 " fill-opacity="1" fill-rule="nonzero"/><path fill="#00fffc" d="M 311.152344 254.679688 C 310.898438 254.59375 310.640625 254.722656 310.554688 254.976562 C 310.382812 255.40625 310.214844 255.875 310.042969 256.304688 C 309.957031 256.5625 310.085938 256.816406 310.339844 256.902344 C 310.382812 256.945312 310.46875 256.945312 310.511719 256.945312 C 310.683594 256.945312 310.898438 256.816406 310.941406 256.648438 C 311.109375 256.21875 311.28125 255.746094 311.453125 255.277344 C 311.539062 255.0625 311.410156 254.804688 311.152344 254.679688 Z M 311.152344 254.679688 " fill-opacity="1" fill-rule="nonzero"/><path fill="#00fffc" d="M 314.824219 240.898438 C 314.570312 240.855469 314.3125 241.027344 314.269531 241.28125 C 314.183594 241.753906 314.101562 242.222656 314.015625 242.695312 C 313.972656 242.953125 314.140625 243.207031 314.398438 243.25 C 314.441406 243.25 314.441406 243.25 314.484375 243.25 C 314.699219 243.25 314.910156 243.082031 314.953125 242.867188 C 315.039062 242.394531 315.125 241.925781 315.210938 241.453125 C 315.253906 241.15625 315.082031 240.898438 314.824219 240.898438 Z M 314.824219 240.898438 " fill-opacity="1" fill-rule="nonzero"/><path fill="#00fffc" d="M 259.054688 297.988281 L 259.351562 298.886719 C 278.484375 292.425781 293.941406 278.902344 302.953125 260.753906 L 302.101562 260.328125 C 293.261719 278.214844 277.972656 291.609375 259.054688 297.988281 Z M 259.054688 297.988281 " fill-opacity="1" fill-rule="nonzero"/><path fill="#00fffc" d="M 202.085938 294.09375 C 184.234375 285.191406 170.910156 269.871094 164.546875 250.953125 L 163.652344 251.253906 C 170.097656 270.425781 183.59375 285.917969 201.699219 294.949219 Z M 202.085938 294.09375 " fill-opacity="1" fill-rule="nonzero"/><path fill="#00fffc" d="M 259.054688 297.988281 C 240.136719 304.363281 219.894531 302.996094 202.042969 294.136719 L 201.617188 294.992188 C 219.679688 303.980469 240.21875 305.347656 259.351562 298.929688 Z M 259.054688 297.988281 " fill-opacity="1" fill-rule="nonzero"/><path fill="#00fffc" d="M 164.503906 250.996094 C 158.140625 232.039062 159.507812 211.753906 168.347656 193.863281 L 167.492188 193.4375 C 158.527344 211.539062 157.160156 232.082031 163.566406 251.253906 Z M 164.503906 250.996094 " fill-opacity="1" fill-rule="nonzero"/><path fill="#00fffc" d="M 167.535156 193.394531 L 168.390625 193.820312 C 177.273438 175.933594 192.5625 162.582031 211.4375 156.203125 L 211.136719 155.304688 C 192.007812 161.726562 176.503906 175.292969 167.535156 193.394531 Z M 167.535156 193.394531 " fill-opacity="1" fill-rule="nonzero"/><path fill="#00fffc" d="M 268.449219 160.054688 L 268.875 159.199219 C 250.8125 150.214844 230.269531 148.84375 211.136719 155.304688 L 211.4375 156.203125 C 230.3125 149.828125 250.597656 151.15625 268.449219 160.054688 Z M 268.449219 160.054688 " fill-opacity="1" fill-rule="nonzero"/><path fill="#00fffc" d="M 171.167969 203.664062 C 170.910156 203.578125 170.652344 203.707031 170.570312 203.964844 C 168.519531 209.742188 167.28125 215.777344 166.855469 221.9375 C 166.8125 222.195312 167.023438 222.410156 167.28125 222.453125 L 167.324219 222.453125 C 167.578125 222.453125 167.75 222.28125 167.792969 222.023438 C 168.21875 215.949219 169.457031 210 171.507812 204.308594 C 171.550781 204.007812 171.378906 203.707031 171.167969 203.664062 Z M 171.167969 203.664062 " fill-opacity="1" fill-rule="nonzero"/><path fill="#00fffc" d="M 168.816406 240.042969 C 168.773438 239.785156 168.519531 239.613281 168.261719 239.65625 C 168.007812 239.699219 167.835938 239.957031 167.878906 240.214844 C 169.03125 246.246094 171.039062 252.066406 173.8125 257.589844 C 173.898438 257.757812 174.070312 257.84375 174.242188 257.84375 C 174.285156 257.84375 174.414062 257.800781 174.453125 257.800781 C 174.667969 257.671875 174.753906 257.375 174.667969 257.160156 C 171.933594 251.726562 169.972656 245.949219 168.816406 240.042969 Z M 168.816406 240.042969 " fill-opacity="1" fill-rule="nonzero"/><path fill="#00fffc" d="M 198.027344 284.679688 C 198.113281 284.71875 198.199219 284.71875 198.285156 284.71875 C 198.457031 284.71875 198.582031 284.679688 198.710938 284.507812 C 198.839844 284.292969 198.753906 283.992188 198.582031 283.820312 C 194.613281 281.253906 190.894531 278.214844 187.523438 274.921875 L 186.839844 275.605469 C 190.253906 279.027344 193.972656 282.023438 198.027344 284.679688 Z M 198.027344 284.679688 " fill-opacity="1" fill-rule="nonzero"/><path fill="#00fffc" d="M 232.703125 294.605469 C 226.640625 294.390625 220.617188 293.367188 214.894531 291.566406 C 214.640625 291.523438 214.382812 291.609375 214.296875 291.867188 C 214.257812 292.125 214.339844 292.382812 214.597656 292.464844 C 220.40625 294.308594 226.511719 295.335938 232.660156 295.589844 C 232.660156 295.589844 232.660156 295.589844 232.703125 295.589844 C 232.960938 295.589844 233.175781 295.417969 233.175781 295.164062 C 233.175781 294.820312 232.960938 294.605469 232.703125 294.605469 Z M 232.703125 294.605469 " fill-opacity="1" fill-rule="nonzero"/><path fill="#00fffc" d="M 184.789062 272.097656 C 184.617188 271.925781 184.320312 271.882812 184.105469 272.054688 C 183.933594 272.222656 183.894531 272.523438 184.0625 272.738281 C 184.960938 273.722656 185.855469 274.664062 186.796875 275.605469 L 187.480469 274.921875 C 186.582031 274.023438 185.6875 273.082031 184.789062 272.097656 Z M 184.789062 272.097656 " fill-opacity="1" fill-rule="nonzero"/><path fill="#00fffc" d="M 267.507812 286.390625 C 262.171875 289.300781 256.535156 291.480469 250.640625 292.851562 C 250.382812 292.894531 250.214844 293.152344 250.296875 293.410156 C 250.339844 293.621094 250.554688 293.792969 250.769531 293.792969 C 250.8125 293.792969 250.8125 293.792969 250.855469 293.792969 C 256.789062 292.382812 262.554688 290.15625 267.9375 287.246094 C 268.148438 287.117188 268.234375 286.816406 268.105469 286.605469 C 268.0625 286.347656 267.765625 286.261719 267.507812 286.390625 Z M 267.507812 286.390625 " fill-opacity="1" fill-rule="nonzero"/><path fill="#00fffc" d="M 178.9375 187.617188 C 178.769531 187.832031 178.855469 188.128906 179.066406 188.300781 C 179.152344 188.34375 179.238281 188.386719 179.367188 188.386719 C 179.535156 188.386719 179.664062 188.34375 179.75 188.214844 C 182.015625 184.964844 184.574219 181.925781 187.394531 179.101562 L 186.710938 178.414062 C 183.808594 181.238281 181.246094 184.320312 178.9375 187.617188 Z M 178.9375 187.617188 " fill-opacity="1" fill-rule="nonzero"/><path fill="#00fffc" d="M 206.996094 165.277344 C 207.039062 165.277344 207.125 165.277344 207.167969 165.234375 C 212.675781 162.710938 218.484375 160.996094 224.460938 160.011719 C 224.71875 159.96875 224.890625 159.714844 224.847656 159.457031 C 224.804688 159.199219 224.546875 159.027344 224.292969 159.070312 C 218.226562 160.011719 212.335938 161.8125 206.738281 164.335938 C 206.484375 164.421875 206.398438 164.722656 206.527344 164.976562 C 206.65625 165.148438 206.867188 165.277344 206.996094 165.277344 Z M 206.996094 165.277344 " fill-opacity="1" fill-rule="nonzero"/><path fill="#00fffc" d="M 192.007812 174.179688 C 191.835938 174.007812 191.535156 173.964844 191.324219 174.136719 C 189.699219 175.503906 188.164062 176.917969 186.667969 178.414062 L 187.351562 179.101562 C 188.804688 177.644531 190.339844 176.234375 191.964844 174.863281 C 192.136719 174.648438 192.136719 174.394531 192.007812 174.179688 Z M 192.007812 174.179688 " fill-opacity="1" fill-rule="nonzero"/><path fill="#00fffc" d="M 235.265625 287.929688 L 235.265625 288.871094 C 252.261719 288.871094 267.679688 281.9375 278.824219 270.769531 L 278.140625 270.085938 C 267.125 281.082031 251.964844 287.929688 235.265625 287.929688 Z M 235.265625 287.929688 " fill-opacity="1" fill-rule="nonzero"/><path fill="#00fffc" d="M 235.265625 166.261719 L 235.265625 165.320312 C 218.269531 165.320312 202.855469 172.253906 191.707031 183.421875 L 192.390625 184.109375 C 203.367188 173.109375 218.527344 166.261719 235.265625 166.261719 Z M 235.265625 166.261719 " fill-opacity="1" fill-rule="nonzero"/><path fill="#00fffc" d="M 278.140625 184.109375 L 278.824219 183.421875 C 267.679688 172.253906 252.261719 165.320312 235.265625 165.320312 L 235.265625 166.261719 C 251.964844 166.261719 267.125 173.109375 278.140625 184.109375 Z M 278.140625 184.109375 " fill-opacity="1" fill-rule="nonzero"/><path fill="#00fffc" d="M 295.90625 227.074219 L 296.847656 227.074219 C 296.847656 210.042969 289.929688 194.59375 278.78125 183.421875 L 278.097656 184.109375 C 289.117188 195.105469 295.90625 210.339844 295.90625 227.074219 Z M 295.90625 227.074219 " fill-opacity="1" fill-rule="nonzero"/><path fill="#00fffc" d="M 192.390625 184.109375 L 191.707031 183.421875 C 180.5625 194.59375 173.644531 210.042969 173.644531 227.074219 L 174.582031 227.074219 C 174.582031 210.339844 181.375 195.105469 192.390625 184.109375 Z M 192.390625 184.109375 " fill-opacity="1" fill-rule="nonzero"/><path fill="#00fffc" d="M 235.265625 287.929688 C 218.527344 287.929688 203.367188 281.125 192.390625 270.085938 L 191.707031 270.769531 C 202.855469 281.9375 218.269531 288.871094 235.265625 288.871094 Z M 235.265625 287.929688 " fill-opacity="1" fill-rule="nonzero"/><path fill="#00fffc" d="M 174.582031 227.074219 L 173.644531 227.074219 C 173.644531 244.105469 180.5625 259.558594 191.707031 270.726562 L 192.390625 270.042969 C 181.375 259.085938 174.582031 243.851562 174.582031 227.074219 Z M 174.582031 227.074219 " fill-opacity="1" fill-rule="nonzero"/><path fill="#00fffc" d="M 278.140625 270.085938 L 278.824219 270.769531 C 289.972656 259.597656 296.890625 244.148438 296.890625 227.117188 L 295.949219 227.117188 C 295.90625 243.851562 289.117188 259.085938 278.140625 270.085938 Z M 278.140625 270.085938 " fill-opacity="1" fill-rule="nonzero"/><path fill="#00fffc" d="M 287.921875 242.308594 C 287.964844 242.054688 287.878906 241.796875 287.621094 241.710938 C 287.367188 241.667969 287.109375 241.753906 287.023438 242.011719 C 286.382812 244.191406 285.617188 246.332031 284.71875 248.386719 L 285.617188 248.773438 C 286.46875 246.675781 287.28125 244.535156 287.921875 242.308594 Z M 287.921875 242.308594 " fill-opacity="1" fill-rule="nonzero"/><path fill="#00fffc" d="M 273.957031 264.476562 C 272.589844 265.890625 271.097656 267.261719 269.601562 268.5 C 267.765625 270.042969 265.800781 271.410156 263.792969 272.695312 C 263.578125 272.824219 263.496094 273.121094 263.621094 273.378906 C 263.75 273.550781 264.007812 273.679688 264.179688 273.550781 C 264.21875 273.550781 264.21875 273.507812 264.21875 273.507812 C 266.269531 272.222656 268.234375 270.8125 270.113281 269.269531 C 271.652344 267.988281 273.144531 266.617188 274.597656 265.164062 C 274.769531 264.992188 274.769531 264.691406 274.597656 264.476562 C 274.425781 264.308594 274.128906 264.308594 273.957031 264.476562 Z M 273.957031 264.476562 " fill-opacity="1" fill-rule="nonzero"/><path fill="#00fffc" d="M 207.464844 179.65625 C 207.253906 179.785156 207.167969 180.085938 207.296875 180.339844 C 207.421875 180.511719 207.679688 180.640625 207.851562 180.511719 C 207.894531 180.511719 207.894531 180.46875 207.894531 180.46875 C 210.328125 179.058594 212.847656 177.773438 215.496094 176.746094 L 215.152344 175.847656 C 212.503906 176.960938 209.898438 178.203125 207.464844 179.65625 Z M 207.464844 179.65625 " fill-opacity="1" fill-rule="nonzero"/><path fill="#00fffc" d="M 220.191406 174.648438 C 220.148438 174.394531 219.851562 174.265625 219.59375 174.351562 C 218.097656 174.777344 216.605469 175.335938 215.152344 175.890625 L 215.496094 176.789062 C 216.902344 176.234375 218.355469 175.71875 219.851562 175.25 C 220.148438 175.164062 220.320312 174.90625 220.191406 174.648438 Z M 220.191406 174.648438 " fill-opacity="1" fill-rule="nonzero"/><path fill="#00fffc" d="M 283.90625 203.664062 C 283.992188 203.878906 284.292969 203.964844 284.503906 203.878906 L 284.546875 203.878906 C 284.761719 203.75 284.890625 203.453125 284.761719 203.238281 C 282.882812 199.257812 280.449219 195.449219 277.585938 192.023438 C 277.417969 191.855469 277.117188 191.8125 276.902344 191.980469 C 276.691406 192.152344 276.691406 192.453125 276.859375 192.667969 C 279.679688 196.003906 282.027344 199.726562 283.90625 203.664062 Z M 283.90625 203.664062 " fill-opacity="1" fill-rule="nonzero"/><path fill="#00fffc" d="M 232.789062 173.023438 C 237.144531 172.851562 241.542969 173.152344 245.859375 174.007812 C 245.941406 174.050781 246.027344 174.007812 246.113281 173.964844 C 246.285156 173.921875 246.371094 173.792969 246.414062 173.621094 C 246.457031 173.367188 246.285156 173.109375 246.027344 173.066406 C 241.671875 172.210938 237.1875 171.867188 232.746094 172.082031 C 232.492188 172.082031 232.277344 172.296875 232.320312 172.59375 C 232.320312 172.851562 232.535156 173.066406 232.789062 173.023438 Z M 232.789062 173.023438 " fill-opacity="1" fill-rule="nonzero"/><path fill="#00fffc" d="M 258.242188 178.074219 C 262.214844 179.957031 265.886719 182.265625 269.300781 185.050781 C 269.429688 185.175781 269.601562 185.175781 269.773438 185.09375 C 269.816406 185.050781 269.898438 185.050781 269.941406 184.964844 C 270.113281 184.792969 270.070312 184.449219 269.898438 184.277344 C 266.441406 181.453125 262.683594 179.058594 258.625 177.175781 C 258.371094 177.046875 258.113281 177.175781 257.984375 177.386719 C 257.898438 177.6875 257.984375 177.988281 258.242188 178.074219 Z M 258.242188 178.074219 " fill-opacity="1" fill-rule="nonzero"/><path fill="#00fffc" d="M 289.542969 229.597656 C 289.585938 229.597656 289.671875 229.597656 289.714844 229.558594 C 289.886719 229.515625 290.015625 229.34375 290.015625 229.128906 C 290.183594 224.679688 289.84375 220.226562 288.945312 215.820312 C 288.902344 215.5625 288.648438 215.390625 288.390625 215.433594 C 288.136719 215.476562 287.964844 215.734375 288.007812 215.992188 C 288.902344 220.269531 289.246094 224.636719 289.03125 229.042969 C 289.117188 229.386719 289.289062 229.597656 289.542969 229.597656 Z M 289.542969 229.597656 " fill-opacity="1" fill-rule="nonzero"/><path fill="#00fffc" d="M 196.917969 187.789062 C 193.757812 190.910156 190.980469 194.421875 188.632812 198.230469 C 188.503906 198.445312 188.589844 198.742188 188.804688 198.914062 C 188.933594 199 189.101562 199 189.230469 198.957031 C 189.316406 198.914062 189.402344 198.871094 189.445312 198.785156 C 191.707031 195.0625 194.441406 191.597656 197.601562 188.515625 C 197.773438 188.34375 197.773438 188.042969 197.601562 187.832031 C 197.429688 187.617188 197.089844 187.617188 196.917969 187.789062 Z M 196.917969 187.789062 " fill-opacity="1" fill-rule="nonzero"/><path fill="#00fffc" d="M 225.871094 280.996094 C 225.957031 280.996094 226.042969 280.996094 226.128906 280.953125 C 226.296875 280.910156 226.382812 280.785156 226.425781 280.613281 C 226.46875 280.355469 226.296875 280.097656 226.042969 280.054688 C 221.816406 279.328125 217.714844 278.085938 213.828125 276.375 L 213.445312 277.273438 C 217.375 278.984375 221.558594 280.226562 225.871094 280.996094 Z M 225.871094 280.996094 " fill-opacity="1" fill-rule="nonzero"/><path fill="#00fffc" d="M 281.859375 254.078125 C 281.730469 254.292969 281.816406 254.59375 282.027344 254.761719 C 282.15625 254.804688 282.328125 254.847656 282.457031 254.804688 C 282.539062 254.761719 282.625 254.722656 282.667969 254.636719 C 283.738281 252.796875 284.71875 250.867188 285.574219 248.902344 L 284.675781 248.515625 C 283.863281 250.355469 282.925781 252.28125 281.859375 254.078125 Z M 281.859375 254.078125 " fill-opacity="1" fill-rule="nonzero"/><path fill="#00fffc" d="M 251.921875 278.214844 C 247.777344 279.542969 243.464844 280.398438 239.109375 280.699219 C 238.855469 280.742188 238.683594 280.953125 238.683594 281.210938 C 238.726562 281.46875 238.9375 281.683594 239.195312 281.640625 C 243.636719 281.339844 248.035156 280.484375 252.261719 279.113281 L 252.304688 279.113281 C 252.519531 279.027344 252.648438 278.773438 252.605469 278.515625 C 252.433594 278.300781 252.179688 278.171875 251.921875 278.214844 Z M 251.921875 278.214844 " fill-opacity="1" fill-rule="nonzero"/><path fill="#00fffc" d="M 278.3125 184.449219 C 278.183594 184.449219 278.058594 184.40625 277.972656 184.320312 C 277.800781 184.148438 277.800781 183.851562 277.972656 183.636719 L 307.011719 154.535156 C 307.179688 154.363281 307.480469 154.363281 307.695312 154.535156 C 307.863281 154.707031 307.863281 155.007812 307.695312 155.21875 L 278.65625 184.277344 C 278.527344 184.363281 278.441406 184.449219 278.3125 184.449219 Z M 278.3125 184.449219 " fill-opacity="1" fill-rule="nonzero"/><path fill="#00fffc" d="M 307.351562 299.65625 C 307.308594 299.65625 307.179688 299.613281 307.140625 299.570312 L 277.972656 271.582031 C 277.84375 271.453125 277.84375 271.28125 277.972656 271.15625 C 278.097656 271.027344 278.269531 271.027344 278.398438 271.15625 L 307.566406 299.144531 C 307.695312 299.269531 307.695312 299.441406 307.566406 299.570312 C 307.523438 299.613281 307.4375 299.65625 307.351562 299.65625 Z M 307.351562 299.65625 " fill-opacity="1" fill-rule="nonzero"/><g clip-path="url(#652500d751)"><path fill="#00fffc" d="M 235.097656 277.230469 L 235.394531 277.230469 L 235.394531 329.269531 L 235.097656 329.269531 Z M 235.097656 277.230469 " fill-opacity="1" fill-rule="nonzero"/></g><g clip-path="url(#489de46f50)"><path fill="#00fffc" d="M 133.289062 226.902344 L 174.242188 226.902344 L 174.242188 227.203125 L 133.289062 227.203125 Z M 133.289062 226.902344 " fill-opacity="1" fill-rule="nonzero"/></g></g></g></g></svg>